<mxfile host="app.diagrams.net" modified="2023-09-22T07:50:24.335Z" agent="Mozilla/5.0 (Macintosh; Intel Mac OS X 10_15_7) AppleWebKit/537.36 (KHTML, like Gecko) Chrome/116.0.0.0 Safari/537.36" version="21.7.5" etag="dxP0VvMUPgCkK5MUG4PN" type="github">
  <diagram name="Page-1" id="YktoeDpuNanrJJFWie9H">
    <mxGraphModel>
      <root>
        <mxCell id="0" />
        <mxCell id="1" parent="0" />
      </root>
    </mxGraphModel>
  </diagram>
</mxfile>
